<svg width="108" height="22" viewBox="0 0 108 22" fill="none" xmlns="http://www.w3.org/2000/svg">
<path d="M10.0428 22C14.4679 22 17.1041 18.9244 17.1041 13.6833C17.1041 8.85022 14.4993 5.99429 10.0742 5.99429C7.31241 5.99429 5.33524 7.21826 4.73895 9.2582H4.67618C4.70756 8.50499 4.77033 7.21826 4.77033 6.49643V0H0V21.7489H4.77033C4.70756 20.9957 4.64479 19.7404 4.61341 18.8302H4.64479C5.2097 20.8074 7.21826 22 10.0428 22ZM8.81883 18.3595C6.27675 18.3595 4.77033 16.9786 4.77033 14.6248V13.903C4.77033 11.2354 6.27675 9.63481 8.78745 9.63481C11.0157 9.63481 12.3338 11.204 12.3338 13.8402C12.3338 16.6961 11.0157 18.3595 8.81883 18.3595Z" fill="#05102E"/>
<path d="M24.3496 22C27.1741 22 28.9316 20.8074 29.4024 18.6106H29.4338C29.4338 19.5521 29.3082 20.9643 29.2141 21.7489H33.9844V12.3338C33.9844 8.19116 31.0971 5.99429 26.1699 5.99429C21.4623 5.99429 18.7005 7.84593 18.7005 10.9843C18.7005 11.2981 18.7319 11.6434 18.7633 11.8944H23.157C23.1256 11.5806 23.1256 11.3295 23.1256 11.2354C23.1256 9.98003 24.1613 9.22682 25.9502 9.22682C28.147 9.22682 29.2141 9.98003 29.2141 11.8631V12.8987H24.1613C20.05 12.8987 18.2298 14.7504 18.2298 17.2924C18.2298 20.4308 20.7405 22 24.3496 22ZM25.2911 18.7675C23.565 18.7675 22.5294 18.1398 22.5294 16.9472C22.5294 16.0685 23.3139 15.4722 24.6007 15.4722H29.2141V15.786C29.2141 17.669 27.7704 18.7675 25.2911 18.7675Z" fill="#05102E"/>
<path d="M36.2247 21.7489H40.995V14.3738C40.995 11.4237 42.5014 9.94864 45.0121 9.94864C47.1148 9.94864 48.3702 10.9215 48.3702 13.1184V21.7489H53.1405V12.0514C53.1405 8.03424 50.724 5.99429 46.9893 5.99429C43.4743 5.99429 41.6541 7.40656 40.8695 10.3566H40.8067L40.995 6.24536H36.2247V21.7489Z" fill="#05102E"/>
<path d="M55.4426 21.7489H60.2129V18.5792L62.7236 16.0371L66.7721 21.7489H73.0488L66.1444 12.9929L72.6722 6.24536H66.8662L60.2443 13.7147H60.2129V0H55.4426V21.7489Z" fill="#05102E"/>
<path d="M75.4727 21.7489H80.1175V17.0414H75.4727V21.7489Z" fill="#05102E"/>
<path d="M83.4258 4.61341H88.1962V0.815976H83.4258V4.61341ZM83.4258 21.7489H88.1962V6.24536H83.4258V21.7489Z" fill="#05102E"/>
<path d="M98.8769 22C103.992 22 107.319 19.0499 107.319 14.0285C107.319 8.97575 103.992 5.99429 98.8769 5.99429C93.7614 5.99429 90.4347 8.97575 90.4347 14.0285C90.4347 19.0499 93.7614 22 98.8769 22ZM98.8769 18.3595C96.5545 18.3595 95.205 16.7589 95.205 14.0285C95.205 11.2668 96.5545 9.63481 98.8769 9.63481C101.199 9.63481 102.549 11.2668 102.549 14.0285C102.549 16.7589 101.199 18.3595 98.8769 18.3595Z" fill="#05102E"/>
</svg>
